<svg xmlns="http://www.w3.org/2000/svg" viewBox="0 0 205.32 256"><title>Ресурс 13</title><g id="Слой_2" data-name="Слой 2"><g id="Слой_5" data-name="Слой 5"><path d="M107,52.12,71.15,151.23H87.77l8.47-23.59h41.54l8.63,23.59h20.81L131,52.12Zm-5.93,61.21,15.74-44.22,15.75,44.22Z"/><path d="M184.37,201.47a21,21,0,0,0,20.95-20.95V21A21,21,0,0,0,184.37,0H21A21,21,0,0,0,0,21V180.52a22,22,0,0,0,.13,2.31c-.08,1-.13,1.95-.13,2.94v25a34.42,34.42,0,0,0,34.42,34.42h82.65v.61A10.14,10.14,0,0,0,127.22,256h.28a.88.88,0,0,1,.37-.09,9.16,9.16,0,0,0,4.76-1.5l18.74-9.79s10.91,5.91,16.11,8.82c4.5,2.51,6.87,2.53,7.44,2.49a10.16,10.16,0,0,0,9-10.08v-.61h9.88a10.77,10.77,0,0,0,0-21.53H183.9V201.47ZM21.31,153.94V36.18a14.94,14.94,0,0,1,6.82-12.54V180.06H21.31Zm95.76,69.77H32.42a11.11,11.11,0,0,1-11.11-11.12h0a11.11,11.11,0,0,1,11.11-11.12h84.65Zm46,0v6.23l-11.7-6.23-11.71,6.23V201.47h23.41ZM50.25,180.06V21.24H169a14.94,14.94,0,0,1,15,14.94V180.06Z"/></g></g></svg>