<svg xmlns="http://www.w3.org/2000/svg" viewBox="0 0 256 175.16"><title>Ресурс 7</title><g id="Слой_2" data-name="Слой 2"><g id="Слой_4" data-name="Слой 4"><path d="M53.67,78.48V144C78.36,170,128,168.14,128,168.14S177.64,170,202.33,144V78.48L128,112Z"/><path d="M37,106.55a13.42,13.42,0,0,0-8-12.3c-.12-10.07.51-23.78,4.11-33.18l94.9,39.5L256,47.3,128,0,0,47.3,23.33,57c-2.75,6.4-5.33,17.68-5.27,37.32a13.41,13.41,0,0,0-.06,24.4C13.8,133.94,6.77,160.24,6.77,165.8c0,7.93,16.85,9.36,16.85,9.36s16.84-1.43,16.84-9.36c0-5.56-7-31.86-11.23-47.07A13.39,13.39,0,0,0,37,106.55Z"/></g></g></svg>