<svg xmlns="http://www.w3.org/2000/svg" viewBox="0 0 256 255.99"><title>Ресурс 1</title><g id="Слой_2" data-name="Слой 2"><g id="Слой_12" data-name="Слой 12"><path d="M242.89,49.63c22.7-32.24,9-45.56,9-45.56s-13.09-13.4-44.68,8.43c-3.61-3.05-11.46-7.12-26.36-4.6C158.35,11.71,138.25,29.39,128,42.74S107.48,71,102.8,81.39,93.12,93.93,90.46,93.87s-9.62-3.38-12.16,2,2.47,8.32,5.72,9,14,3,23.53-8.32c5.59-6.63,8.64-15,15.86-26.65S154,28.81,168.06,24.32c12.43-3.95,18.21-7.49,28.49-4.09-28.1,21-52.83,44.42-76.85,68.44-26.77,26.77-82.08,91.05-85.2,95s-2.93,5.92-2.93,5.92S11.81,218.13,10,237.37l.11.11-8.36,8.36a5.95,5.95,0,1,0,8.41,8.41l8.36-8.37.11.11c19.24-1.82,47.83-21.58,47.83-21.58s2,.2,5.92-2.92,68.17-58.43,94.95-85.21S220.18,81.86,242.89,49.63Zm.58-37.11c5.37,5.37-8.17,26.28-8.17,26.28l-9.05-9.06-9.06-9.06S238.1,7.14,243.47,12.52ZM19.77,236.22s6.6-23.29,18.76-39.08L48.69,207.3l10.16,10.16C43.05,229.61,19.77,236.22,19.77,236.22ZM66.58,211,55.77,200.22,45,189.41a1233.86,1233.86,0,0,1,85.66-94.85c50.61-50.61,76-66.86,76-66.86l10.81,10.81,10.81,10.81S212,74.76,161.43,125.37A1236.42,1236.42,0,0,1,66.58,211Z"/></g></g></svg>