<svg xmlns="http://www.w3.org/2000/svg" viewBox="0 0 256 204.09"><title>Ресурс 3</title><g id="Слой_2" data-name="Слой 2"><g id="Слой_10" data-name="Слой 10"><path d="M227.78,74.46c-26.37,0-35.09,22.41-36,31.58-13.31,2.13-28.13-13.94-28.13-13.94s-59.17-.25-64.78-.33C93.9,96,96.75,97.46,81.18,103.54c-17.31,6.76-46.69-8.89-48.91-10.67s-28-1.56-28-1.56c-7.08,1.22-5.6,4.43,6.45,9.2S51,132.28,68.84,149.23s57.75,26.11,92.78,15.19,39.35-45.95,45-62S227,87,227,87c4.84,0,15.76-.37,16.14,16.58s-23.42,23.72-33,27.43-13.94,6-13.94,16.07,7.1,10.92,10.55,11.05,9.23-2.2,9.66-8.73a7.42,7.42,0,0,0-5.58-7.91c0-1.32,4.27-2.13,16-6,26.26-8.71,28.81-26.75,29.18-33.21S254.14,74.46,227.78,74.46Z"/><path d="M156,186c-6.36-3.51-5.53-7.57-4.15-10.29s-.79-3.18-.79-3.18H111.31c-1.92,0-2.34,2.09-.92,3.76s2.1,8.79-8.62,12.39-17.07,6.11-19.5,10.88,1.26,4.52,1.26,4.52H177c2.51,0,2.84-.75,2.34-3.26C177.84,193.22,162.33,189.53,156,186Z"/><path d="M149.31,75.72c-3.45-3.27-12.05-7.22-13.74-8s-.63-1.63.56-2.76S140,61.28,140,55.69s-5-8.91-9.35-8.91a9.31,9.31,0,0,0-9,9.54c.24,7.09,3.08,8.22,4.14,8.73s2.83,2.26,0,2.7c-12.16,1.89-22.28,19.71-22.28,19.71h54.74S152.77,79,149.31,75.72Z"/><path d="M20.44,81.48s-5.35-2.86-.86-18S51.06,44.94,57.48,35.8,66.25,9.14,41.18,0c17.29,22.35-2.47,28.89-10.24,32S5.26,37.9,5.75,57.78,20.44,81.48,20.44,81.48Z"/></g></g></svg>