<svg xmlns="http://www.w3.org/2000/svg" viewBox="0 0 256 186.18"><title>Ресурс 4</title><g id="Слой_2" data-name="Слой 2"><g id="Слой_9" data-name="Слой 9"><path d="M225.16,0H30.84A30.84,30.84,0,0,0,0,30.84v124.5a30.84,30.84,0,0,0,30.84,30.84H225.16A30.84,30.84,0,0,0,256,155.34V30.84A30.84,30.84,0,0,0,225.16,0Zm16.9,154.56a13.77,13.77,0,0,1-1.9,7L176.81,98.19l65.25-65.25ZM115,134a18.38,18.38,0,0,0,26,0l23.1-23.1,57.52,57.52h-187L92,111ZM27.82,17.39H228.18a13.85,13.85,0,0,1,5.51,1.14L141,111.23a18.38,18.38,0,0,1-26,0l-92.7-92.7A13.85,13.85,0,0,1,27.82,17.39ZM13.94,32.94,79.29,98.29,15.91,161.67a13.85,13.85,0,0,1-2-7.11Z"/></g></g></svg>