<svg xmlns="http://www.w3.org/2000/svg" viewBox="0 0 171.34 256"><title>Ресурс 12</title><g id="Слой_2" data-name="Слой 2"><g id="Слой_8" data-name="Слой 8"><path d="M83.09,30.46a52.41,52.41,0,1,0,52.4,52.41A52.4,52.4,0,0,0,83.09,30.46Zm0,96.68a44.28,44.28,0,1,1,44.27-44.27A44.28,44.28,0,0,1,83.09,127.14Z"/><path d="M107.57,58.77a4.41,4.41,0,0,0-6.18.84L71.12,99.36l-9.1-12a4.41,4.41,0,0,0-6.18-.84h0A4.43,4.43,0,0,0,55,92.76l12.52,16.43a4.07,4.07,0,0,0,.84.82l.12.11c.08.06.17.1.26.16l.15.1a4.4,4.4,0,0,0,5.77-1.1L108.41,65A4.42,4.42,0,0,0,107.57,58.77Z"/><path d="M135.25,138.9c3.57-4.42,7.27-6,12.68-8.93,7.42-4,9.47-7.55,8.19-14.58s-.51-16.51,5.25-22,4.73-10.51,4.73-10.51h0s1-5-4.73-10.51-6.53-15-5.25-22-.77-10.62-8.19-14.59-11.63-5.5-16.69-15.23S124.77,9.14,114.15,9.66s-14.33,0-20.6-5.25S83.09.06,83.09.06s-4.2-.9-10.47,4.35-10,5.76-20.6,5.25S40,10.81,34.93,20.53,25.66,31.79,18.24,35.76s-9.47,7.55-8.19,14.59.51,16.5-5.25,22S.07,82.87.07,82.87s-1,5,4.73,10.51,6.53,15,5.25,22S10.82,126,18.24,130c6.65,3.56,10.72,5.18,15.14,12.48L8.23,226.35l37.24-20.64,19.59,37.58,20.76-67.58L115.35,256l17.3-39,38.69,18.35Zm-3.1-5.79-.05.06a23.19,23.19,0,0,0-1.81,2.19l-.24.33-.4.6-.39.58c-.12.19-.24.37-.35.57l-.48.8-.29.49c-.26.46-.52.94-.78,1.45-4.66,8.94-6,10.47-15.71,10s-13.18,0-19,4.82c-5.18,4.34-8.81,4.11-9.49,4-.11,0-.22,0-.34,0H82.7c-1.1.07-4.53-.1-9.23-4-5.77-4.82-9.18-5.29-18.94-4.82s-11.06-1.06-15.72-10c-.27-.54-.55-1-.82-1.53s-.42-.71-.63-1.06l-.17-.28q-.39-.63-.78-1.2h0c-.26-.38-.52-.75-.79-1.1h0c-3.43-4.54-6.92-6-12.14-8.82-6.83-3.65-8.71-6.94-7.53-13.42s.47-15.17-4.83-20.23-4.35-9.66-4.35-9.66-.94-4.61,4.35-9.67,6-13.76,4.83-20.23.7-9.77,7.53-13.41,10.69-5.06,15.34-14,5.95-10.47,15.72-10,13.17,0,18.94-4.83,9.62-4,9.62-4,3.85-.82,9.61,4,9.18,5.3,19,4.83,11,1.06,15.71,10,8.52,10.35,15.34,14,8.71,6.94,7.53,13.41-.47,15.17,4.83,20.23,4.35,9.67,4.35,9.67h0s.94,4.6-4.35,9.66-6,13.76-4.83,20.23-.7,9.77-7.53,13.42C138.28,128.54,135.11,130,132.15,133.11Z"/></g></g></svg>