<svg xmlns="http://www.w3.org/2000/svg" viewBox="0 0 207.36 256"><title>Ресурс 8</title><g id="Слой_2" data-name="Слой 2"><g id="Слой_3" data-name="Слой 3"><path d="M140.53,0H35.16A35.16,35.16,0,0,0,0,35.16v93.61s-.22,8.79,7.6,8.79,8.31-1.83,13.52-6,28.12-22.79,28.12-22.79h91.29a35.17,35.17,0,0,0,35.16-35.17V35.16A35.16,35.16,0,0,0,140.53,0Zm24.53,73.23a24.34,24.34,0,0,1-24.34,24.34H46.24L11.56,124.23V35.94A24.35,24.35,0,0,1,35.91,11.59H140.72a24.34,24.34,0,0,1,24.34,24.35Z"/><path d="M31.67,153.6v38.45a35.16,35.16,0,0,0,35.16,35.16h91.29S181,245.86,186.24,250s5.7,6,13.52,6,7.6-8.79,7.6-8.79V153.6a35.16,35.16,0,0,0-35.16-35.16H66.83A35.16,35.16,0,0,0,31.67,153.6Zm10.63.77A24.34,24.34,0,0,1,66.64,130H171.46a24.34,24.34,0,0,1,24.34,24.34v88.3L161.12,216H66.64A24.35,24.35,0,0,1,42.3,191.66Z"/></g></g></svg>