<svg xmlns="http://www.w3.org/2000/svg" viewBox="0 0 195.34 256"><title>Ресурс 5</title><g id="Слой_2" data-name="Слой 2"><g id="Слой_7" data-name="Слой 7"><path d="M157.29,93.47H99.58a5.91,5.91,0,1,0,0,11.82h57.71a5.91,5.91,0,0,0,0-11.82Z"/><path d="M85.2,79.23a5.73,5.73,0,0,0-8.09,0L51.68,104.67,42,95a5.73,5.73,0,0,0-8.09,0h0a5.74,5.74,0,0,0,0,8.1L47.62,116.8a5.77,5.77,0,0,0,8.12,0L85.2,87.33a5.72,5.72,0,0,0,0-8.1Z"/><path d="M157.24,139.35H99.53a5.92,5.92,0,0,0,0,11.83h57.71a5.92,5.92,0,0,0,0-11.83Z"/><path d="M85.16,125.12a5.72,5.72,0,0,0-8.1,0L51.63,150.55,42,140.88a5.72,5.72,0,0,0-8.1,8.09l13.71,13.71a5.77,5.77,0,0,0,8.12,0l29.47-29.47a5.73,5.73,0,0,0,0-8.09Z"/><path d="M157.24,185.24H99.53a5.91,5.91,0,0,0,0,11.82h57.71a5.91,5.91,0,0,0,0-11.82Z"/><path d="M85.16,171a5.72,5.72,0,0,0-8.1,0L51.63,196.43,42,186.76a5.72,5.72,0,0,0-8.1,8.09l13.71,13.71a5.75,5.75,0,0,0,8.12,0l29.47-29.47a5.73,5.73,0,0,0,0-8.09Z"/><path d="M175.47,35.24H145.3a11.79,11.79,0,0,0-11.66-10.12H120.26V22.59a22.59,22.59,0,0,0-45.18,0v2.53h-14A11.78,11.78,0,0,0,49.45,35.24H19.86A19.86,19.86,0,0,0,0,55.1v181A19.86,19.86,0,0,0,19.86,256H175.47a19.87,19.87,0,0,0,19.87-19.86V55.1A19.87,19.87,0,0,0,175.47,35.24ZM60.7,37.12H80.38a6.52,6.52,0,0,0,5.7-6.47v-.06h0V22.53a11.53,11.53,0,0,1,23.06,0v8.09h0v.06a6.53,6.53,0,0,0,5.53,6.44h20V54.65H60.7ZM183.84,233.68a10.14,10.14,0,0,1-10.14,10.14H21.05A10.15,10.15,0,0,1,10.9,233.68v-177A10.15,10.15,0,0,1,21.05,46.53H49.32v8.09A11.79,11.79,0,0,0,61.11,66.41h72.53a11.79,11.79,0,0,0,11.79-11.79V46.53H173.7a10.14,10.14,0,0,1,10.14,10.15Z"/></g></g></svg>