<svg xmlns="http://www.w3.org/2000/svg" viewBox="0 0 256 256"><title>Ресурс 2</title><g id="Слой_2" data-name="Слой 2"><g id="Слой_11" data-name="Слой 11"><path d="M128,75.84A52.16,52.16,0,1,0,180.16,128,52.17,52.17,0,0,0,128,75.84Zm0,90.69A38.53,38.53,0,1,1,166.53,128,38.53,38.53,0,0,1,128,166.53Z"/><path d="M128,67.91a8.08,8.08,0,0,0,8.08-8.08V8.08a8.08,8.08,0,0,0-16.16,0V59.83A8.08,8.08,0,0,0,128,67.91Z"/><path d="M128,188.09a8.08,8.08,0,0,0-8.08,8.08v51.75a8.08,8.08,0,0,0,16.16,0V196.17A8.08,8.08,0,0,0,128,188.09Z"/><path d="M74.07,85.52a8.08,8.08,0,0,0,11.43,0h0a8.08,8.08,0,0,0,0-11.43L48.9,37.51A8.08,8.08,0,0,0,37.47,48.94Z"/><path d="M181.93,170.48a8.08,8.08,0,0,0-11.43,0h0a8.08,8.08,0,0,0,0,11.43l36.6,36.58a8.08,8.08,0,0,0,11.43,0h0a8.08,8.08,0,0,0,0-11.43Z"/><path d="M170.49,85.51a8.08,8.08,0,0,0,11.43,0l36.59-36.59a8.08,8.08,0,1,0-11.43-11.43l-36.6,36.59a8.08,8.08,0,0,0,0,11.43Z"/><path d="M85.51,170.49a8.08,8.08,0,0,0-11.43,0L37.49,207.08a8.09,8.09,0,0,0,0,11.43h0a8.08,8.08,0,0,0,11.43,0l36.6-36.59a8.08,8.08,0,0,0,0-11.43Z"/><path d="M247.92,119.92H196.17a8.09,8.09,0,0,0,0,16.17h51.75A8.09,8.09,0,0,0,256,128h0A8.08,8.08,0,0,0,247.92,119.92Z"/><path d="M67.91,128a8.08,8.08,0,0,0-8.08-8.09H8.08a8.09,8.09,0,0,0,0,16.17H59.83A8.08,8.08,0,0,0,67.91,128Z"/></g></g></svg>