<svg id="Слой_1" data-name="Слой 1" xmlns="http://www.w3.org/2000/svg" viewBox="0 0 1345.31 329.38"><defs><style>.cls-1{fill:#3b82f6;}</style></defs><title>GG</title><path class="cls-1" d="M127.29,309.4a5.52,5.52,0,0,0-5.56,4.87c-2,.33-4.33-2.15-4.33-2.15l-10-.05a4.89,4.89,0,0,1-2.72,1.81c-2.67,1-7.2-1.37-7.54-1.64s-4.32-.24-4.32-.24c-1.09.19-.86.68,1,1.42s6.21,4.89,9,7.5,8.9,4,14.3,2.35,6.07-7.09,6.94-9.55a3.35,3.35,0,0,1,3.13-2.39c.75,0,2.43-.06,2.49,2.55s-3.61,3.66-5.09,4.23-2.15.92-2.15,2.48a1.5,1.5,0,0,0,1.63,1.7,1.44,1.44,0,0,0,1.49-1.35,1.16,1.16,0,0,0-.87-1.22c0-.2.66-.32,2.47-.92,4.05-1.35,4.44-4.13,4.5-5.12S131.35,309.4,127.29,309.4Z"/><path class="cls-1" d="M116.22,326.6c-1-.55-.85-1.17-.64-1.59s-.12-.49-.12-.49h-6.13c-.29,0-.36.32-.14.58s.32,1.35-1.33,1.91-2.63.94-3,1.68.19.69.19.69h14.41c.39,0,.44-.11.36-.5C119.59,327.71,117.2,327.14,116.22,326.6Z"/><path class="cls-1" d="M111.56,308.36c-1.87.3-3.43,3-3.43,3h8.44a14.52,14.52,0,0,0-1.38-1.81,10.84,10.84,0,0,0-2.12-1.24c-.26-.12-.09-.25.09-.42a1.8,1.8,0,0,0,.59-1.42,1.42,1.42,0,1,0-2.83.09c0,1.1.48,1.27.64,1.35S112,308.3,111.56,308.36Z"/><path class="cls-1" d="M92.88,299.18c3-3.83,5.23-11.41,5.23-11.41s-7.44,5.09-9.34,12,2.93,12,2.93,12S88.09,305.28,92.88,299.18Z"/><path class="cls-1" d="M60.19,30.88c0-5.28,5.17-7,5.17-7s-5.13-1.79-5.13-6.61c0,4.8-5.62,6.75-5.62,6.75S60.19,25.64,60.19,30.88Z"/><path class="cls-1" d="M71.14,20c0-8,8.66-10.45,8.66-10.45S71.13,7,71.13,0c0,7.06-8.5,9.53-8.5,9.53S71.14,11.93,71.14,20Z"/><path class="cls-1" d="M182.62,196c-4.11-2.6-15.15-1.57-24.26-1.5-9.52.07-27.75.13-43.18.13-15.68,0-21.25,5.21-25.78,17.41s3.16,25.64,10.27,36.06,4,25.22,4,25.22c5.62-16.45-4.11-28.51-5.83-32.76s-.89-8.57,3.91-20.43,19.19-13.78,24.61-13.5,26.38.07,29.68.07c3.84,0,13.71.2,14.12,2,2.69,12.13-.82,23-6.38,36s-31.56,30.12-66.62,30.43c-18.92.17-36.4-9.05-59.22-31.25S20,198.42,27.65,184,47,159.76,80.49,142.49s58.25,5.65,65.8,9.56,22.37,6.38,30.54,4.11,15.22-14.29,14.09-23.59-28.33-26.12-33.37-27.81c3.09-2.78,3.76-10.49,1.85-19.38,8.13-8.23,7.15-12.86,4.94-19.9s-7.82-12.08-10.75-14.8-4.73-6-4-8.23,4.37-3,9.66-2.36c-12.75-9.31-22.1-.52-22.1-.52s-12-.51-22.37,6.51S110.17,63,111.2,64.45s-2.06,7-2.78,9-2.67,3.8-8.46,14.08c-24.4-9-39.89,10.73-39.89,10.73s1.2-30.18.09-33.13c1.21-2,4.24-6.35,5.43-10.23a13.47,13.47,0,0,0-1.14-9.82c-1.08-2-3-7.3-2.8-9.18A2.27,2.27,0,0,0,60,33.38a1.66,1.66,0,0,0-1.54.87c-1.14-.18-4.63,2.08-4.63,2.08s-.52-5.93-2.57-5.42S50.39,38,50.39,38a25.65,25.65,0,0,1-3.23,1.83c-3.39,1.72.28,6.19.28,6.19a23.09,23.09,0,0,0-3.57,5c-1,2.18.41,3.62,3.72,11.12-12.75,16.45-18.5,35.5-18.23,56.89C4.41,143.59-.39,171.55,0,196.78s4.8,36.6,26.74,61.68,46.47,30,84.17,28.11,54.28-23.86,62.1-33,11-32.08,11.65-38.52S186.74,198.56,182.62,196ZM163,134.62a28.22,28.22,0,0,0,3.22,1.34,10.55,10.55,0,0,1-3.22-1.34c-15.39-7.45-19.49-25.66-18.58-33.51C144.44,101.11,151.84,127.88,163,134.62Zm-13-40.42,2.4,3.47-1,4.93.48-4.93Zm3.16-3.32,2.06,4-1.48,6.26.62-6Zm2.4,9L157.4,93l-1.48-5.14,2.51,4.79Zm-6.41-10.43c1.28-1.36,3.1-.12,3.1-.12s-1.12-2,.41-3.23a1.59,1.59,0,0,1,2.47.54,1.93,1.93,0,0,1,.95-2.63,2.09,2.09,0,0,1,2.83.87s-1.66-1-2.44-.37-.94,2.91-.94,2.91-1.49-1.79-2.51-1-.2,3.7-.2,3.7-2.12-1.52-3.19-.4,0,3.89,0,3.89-1.74-1.35-2.86-.38-.62,2.79-.62,2.79l-1.78,3.87s1.39-3.16,1.33-4.16a3.64,3.64,0,0,1,.4-2.47,1.83,1.83,0,0,1,2.9-.31S147.93,90.79,149.21,89.44ZM110.72,75.3c3.6-4.57,2.57-10.85,2.57-10.85,1.13-1.08,2.62-2.46,5.19-2.05S129,61.32,129,61.32s-2.44-3.09.21-8.33c.2,8.17,6.52,15.32,13.57,19.23s4.88,9,4.88,9-5.81,4-6.06,6.43-1.75,7-5.71,6.68-6.63-3.7-9.05-5.94-2.47-.95-5.19-1.34-3-1.61-3.14-3.31,2.88-4.11,4.42-6.17,1.39-6.58.42-8.22S118.43,67,116.38,68s-1,1.49.72,1.59,5.44,1.55,3.54,6.63a11.8,11.8,0,0,1-9.1,7.1C109.85,83.32,107.12,79.88,110.72,75.3Zm15.42,18.46c-.75.82-3.77,4.86-8.5,3.7s-6.78-6-7-7-.69-4.12,1.1-3.29c0,0,10.14,4.86,12.54,4.31S126.9,92.93,126.14,93.76ZM99.69,88.38c-.31,11.89,6.37,12.5,5.67,18.17a17,17,0,0,0,2.34,10.1c.55-9.8,10.49-5.52,10.49-5.52,16.25,3,25.5-10.18,25.5-10.18a23,23,0,0,1-21.42,12.27c-3.74-.41-9.66-3.63-11.82,1.24s.41,4.25,2.19,7.33c-10.21.34-8.94-14.12-8.84-15.83s-3.5-5.76-4.87-8.54S99.69,88.38,99.69,88.38ZM58,37.17s-.34,3.16.55,4.87,1.42,6,1.42,6S56,44,54.34,43.44c-.17-1.54-.17-3-.17-3Zm1.17,13.39c-.75-1.62-5.73-3.89-7.62-3.25S48,52.76,48,52.76s1.19-5.14,3.17-6,7.27,1.82,8.35,3.26-.63,2.95-1.35,2.38-3.83-2.14-4.85-2S50.93,52.76,50.73,55c0-2.75,1.32-5.16,2.45-5.25S58.3,51.85,58.5,52,59.93,52.17,59.18,50.56ZM53.63,36.45A13.2,13.2,0,0,1,50.55,38,8.05,8.05,0,0,1,53.63,36.45Zm.41,7a7.5,7.5,0,0,0-6.37,2.39S51.24,41.17,54,43.43ZM90.43,94.78C60.75,99.51,47,108.08,30.25,118.71,30.25,118.71,60.25,93,90.43,94.78Z"/><path class="cls-1" d="M117.78,75.45c.72.86,1.71,1.1,2.09.38s-.24-2.64-3.15-3.25S113,73.67,113,73.67C116,73.45,117.06,74.6,117.78,75.45Z"/><path class="cls-1" d="M136.39,75.9a16.9,16.9,0,0,1,5.14,2.67c.1-4.28-4.28-6.89-6.48-7.26s-4.93.68-4.62,2.67S133.85,75.25,136.39,75.9Z"/><path class="cls-1" d="M131.63,82.93c1.13-.18,2.36-.9,3.46-.79a6.38,6.38,0,0,1,3.63,2s.08-3.15-2.75-4-5.78.24-5.92,1.09A1.42,1.42,0,0,0,131.63,82.93Z"/><path class="cls-1" d="M271.21,193a26.82,26.82,0,0,1,5.9.62,20.21,20.21,0,0,1,4.65,1.55v29.63a35.25,35.25,0,0,0-13.65-2.64q-9.78,0-15.05,5.12t-5.27,15.2V256h14v25.44H205.28V256h6.83V220.65h-6.83V195.21h42.51v11.32a32.38,32.38,0,0,1,9.93-9.93A24.6,24.6,0,0,1,271.21,193Zm106,63v25.44H336.26V270.91a31.82,31.82,0,0,1-9.62,8.84q-6,3.88-14.89,3.88-11.62,0-18.3-6.21t-6.67-17.52q0-29.32,49.79-30.1-.46-5.27-4-7.13-3.57-2-12.1-2a80.38,80.38,0,0,0-15.05,1.55,82.9,82.9,0,0,0-14.58,3.88V197.54a161.47,161.47,0,0,1,17.84-3.26A146.14,146.14,0,0,1,327.42,193q23.11,0,33,8.37t9.93,25.91V256Zm-40.95-10.86q-7,0-10.86,1.86a6.42,6.42,0,0,0-3.72,6.21,6.24,6.24,0,0,0,1.55,4.34,6.68,6.68,0,0,0,4.65,1.55,7,7,0,0,0,6.21-3.41c1.45-2.28,2.17-5.48,2.17-9.62ZM538.89,256v25.44h-49V256h6.52V230.58q0-5.13-2.18-7.45c-1.44-1.65-3.62-2.48-6.51-2.48q-9.31,0-9.31,9.93V256h6.52v25.44H436.2V256h6.51V230.58q0-5.13-2.17-7.45-2.18-2.48-6.51-2.48-9.31,0-9.31,9.93V256h6.51v25.44h-49V256H389V220.65h-6.83V195.21h42.51v12.1Q435.88,193,452.64,193q9.47,0,15.36,4.5A23,23,0,0,1,476.53,210a42.36,42.36,0,0,1,12.72-12.41,32.67,32.67,0,0,1,17.06-4.35q12.88,0,19.24,8.07,6.51,8.07,6.52,22.18V256Zm161.64,0v25.44h-49V256H658V230.58q0-5.13-2.17-7.45-2.18-2.48-6.51-2.48-9.32,0-9.31,9.93V256h6.52v25.44H597.84V256h6.51V230.58q0-5.13-2.17-7.45-2.17-2.48-6.52-2.48-9.3,0-9.3,9.93V256h6.51v25.44h-49V256h6.83V220.65h-6.83V195.21h42.51v12.1Q597.52,193,614.28,193q9.47,0,15.36,4.5A23.08,23.08,0,0,1,638.17,210a42.36,42.36,0,0,1,12.72-12.41A32.67,32.67,0,0,1,668,193.19q12.88,0,19.24,8.07,6.51,8.07,6.51,22.18V256Zm95.4,0v25.44H755V270.91a31.94,31.94,0,0,1-9.62,8.84q-6,3.88-14.89,3.88-11.64,0-18.31-6.21t-6.67-17.52q0-29.32,49.8-30.1-.46-5.27-4-7.13-3.57-2-12.1-2a80.19,80.19,0,0,0-15,1.55,82.44,82.44,0,0,0-14.58,3.88V197.54a161.28,161.28,0,0,1,17.83-3.26A146.26,146.26,0,0,1,746.13,193q23.11,0,33,8.37t9.92,25.91V256ZM755,245.16q-7,0-10.86,1.86a6.43,6.43,0,0,0-3.73,6.21,6.2,6.2,0,0,0,1.56,4.34,6.65,6.65,0,0,0,4.65,1.55,6.93,6.93,0,0,0,6.2-3.41c1.45-2.28,2.18-5.48,2.18-9.62ZM867.17,193a26.66,26.66,0,0,1,5.89.62,20.47,20.47,0,0,1,4.66,1.55v29.63a35.26,35.26,0,0,0-13.66-2.64q-9.76,0-15,5.12t-5.28,15.2V256h14v25.44H801.24V256h6.82V220.65h-6.82V195.21h42.5v11.32a32.59,32.59,0,0,1,9.93-9.93A24.61,24.61,0,0,1,867.17,193ZM1000,242.68h-7.76v31q-6.82,3.89-20,7A127.6,127.6,0,0,1,944,283.63q-29,0-45.45-15.2-16.45-15.36-16.45-47.32,0-32.73,16.29-47.62,16.44-14.9,46.85-14.89a117.53,117.53,0,0,1,27.61,3.1q12.87,3.11,19.39,7v37.08H953.47v-7.29q0-6.53-2.79-9.31-2.64-3-8.53-2.95t-8.69,2.95q-2.64,2.79-2.64,9.31v45.29q0,6.53,2.64,9.47,2.79,2.79,8.69,2.79t8.53-2.79q2.79-3,2.79-9.47v-1.08h-8.38V219.56H1000Zm50.29,40.95q-22,0-34.44-11.48-12.4-11.64-12.41-33.82t12.41-33.66Q1028.28,193,1050.3,193t31.49,11.48q9.78,11.32,9.77,28.23v11.17H1041.3v.93c0,3.82,1.14,6.67,3.42,8.53s6,2.64,11.32,2.64a111.32,111.32,0,0,0,18-1.4,92.3,92.3,0,0,0,14.9-3.57v24.82q-5.43,3-16,5.43A103.68,103.68,0,0,1,1050.3,283.63Zm9-56.78V225c0-3.51-.78-6.05-2.33-7.6s-3.67-2.33-6.67-2.33-5.27.83-6.83,2.49-2.17,4-2.17,7.44v1.86ZM1199.18,256v25.44h-49V256h6.52V230.58q0-5.13-2.17-7.45-2.17-2.48-6.52-2.48-9.32,0-9.31,9.93V256h6.52v25.44h-49V256H1103V220.65h-6.82V195.21h42.5v12.1Q1149.86,193,1166.6,193q12.89,0,19.24,8.06,6.51,8.07,6.52,22.19V256Zm12.46-69.34V160.77h31.64v25.91Zm-7.45,94.78V256H1211V220.65h-6.83V195.21h42.51V256h6.82v25.44Zm99.86,2.17q-22,0-34.44-11.48-12.4-11.64-12.41-33.82t12.41-33.66Q1282,193,1304.05,193q21.87,0,31.49,11.48,9.76,11.32,9.77,28.23v11.17h-50.26v.93c0,3.82,1.14,6.67,3.41,8.53s6,2.64,11.32,2.64a111.44,111.44,0,0,0,18-1.4,92.16,92.16,0,0,0,14.89-3.57v24.82q-5.42,3-16,5.43A103.59,103.59,0,0,1,1304.05,283.63Zm9-56.78V225c0-3.51-.77-6.05-2.32-7.6s-3.67-2.33-6.67-2.33-5.28.83-6.83,2.49-2.17,4-2.17,7.44v1.86Z"/></svg>