<svg id="Genie" data-name="Genie" xmlns="http://www.w3.org/2000/svg" viewBox="0 0 81.97 141.34">
    <defs>
        <style>.cls-1{fill:#3F85F5;}</style>
    </defs>
    <title>GGLogo</title>
    <path class="cls-1"
          d="M54.62,132.76a2.36,2.36,0,0,0-2.38,2.09c-.88.14-1.86-.92-1.86-.92l-4.29,0a2.19,2.19,0,0,1-1.17.78c-1.14.44-3.09-.59-3.23-.71a10.33,10.33,0,0,0-1.86-.1c-.46.08-.37.29.43.61a22,22,0,0,1,3.85,3.22,6.72,6.72,0,0,0,6.13,1c2.32-.72,2.61-3,3-4.1a1.44,1.44,0,0,1,1.34-1c.32,0,1,0,1.07,1.1s-1.55,1.57-2.18,1.81-.92.39-.92,1.06a.64.64,0,0,0,.69.73.61.61,0,0,0,.64-.57.49.49,0,0,0-.37-.53c0-.08.29-.14,1.06-.4a2.4,2.4,0,0,0,1.93-2.19A1.69,1.69,0,0,0,54.62,132.76Z"
          transform="translate(0 0)"/>
    <path class="cls-1"
          d="M49.87,140.14c-.42-.23-.37-.5-.28-.68s-.05-.21-.05-.21H46.91c-.12,0-.15.14-.06.25s.14.58-.57.82-1.13.4-1.29.72.09.3.09.3h6.18c.17,0,.19-.05.16-.22C51.32,140.62,50.29,140.37,49.87,140.14Z"
          transform="translate(0 0)"/>
    <path class="cls-1"
          d="M47.87,132.32c-.8.12-1.47,1.3-1.47,1.3H50a5.41,5.41,0,0,0-.59-.77,4.82,4.82,0,0,0-.91-.54c-.11-.05,0-.1,0-.18a.75.75,0,0,0,.25-.61.61.61,0,1,0-1.21,0c0,.47.2.55.27.58S48.06,132.29,47.87,132.32Z"
          transform="translate(0 0)"/>
    <path class="cls-1"
          d="M39.86,128.38a18.37,18.37,0,0,0,2.24-4.9s-3.19,2.18-4,5.16a5.72,5.72,0,0,0,1.26,5.16A5.1,5.1,0,0,1,39.86,128.38Z"
          transform="translate(0 0)"/>
    <path class="cls-1"
          d="M25.83,13.25a3.3,3.3,0,0,1,2.22-3s-2.21-.77-2.21-2.83c0,2.06-2.41,2.89-2.41,2.89S25.83,11,25.83,13.25Z"
          transform="translate(0 0)"/>
    <path class="cls-1"
          d="M30.53,8.57c0-3.44,3.71-4.48,3.71-4.48S30.52,3,30.52,0c0,3-3.64,4.09-3.64,4.09S30.53,5.12,30.53,8.57Z"
          transform="translate(0 0)"/>
    <path class="cls-1"
          d="M78.36,84.08C76.6,83,71.86,83.41,68,83.44c-4.08,0-11.91.06-18.53.06S40.3,85.73,38.36,91s1.36,11,4.41,15.47,1.71,10.82,1.71,10.82C46.89,110.2,42.72,105,42,103.2s-.38-3.68,1.68-8.76,8.23-5.92,10.56-5.8,11.31,0,12.73,0c1.65,0,5.88.09,6.06.88,1.16,5.21-.35,9.89-2.74,15.45s-13.54,12.92-28.58,13c-8.12.08-15.62-3.88-25.42-13.41S8.6,85.14,11.86,79s8.3-10.42,22.68-17.83,25,2.43,28.23,4.11S72.37,68,75.88,67s6.53-6.13,6-10.13S69.77,45.68,67.61,45c1.32-1.19,1.61-4.5.79-8.32,3.49-3.52,3.07-5.51,2.12-8.53s-3.36-5.19-4.61-6.35-2-2.56-1.7-3.53,1.87-1.28,4.15-1c-5.47-4-9.49-.22-9.49-.22a17.67,17.67,0,0,0-9.6,2.79,5.45,5.45,0,0,0-1.55,7.89c.44.61-.89,3-1.2,3.86s-1.14,1.64-3.63,6.05c-10.47-3.88-17.12,4.6-17.12,4.6s.52-13,.05-14.22a20.44,20.44,0,0,0,2.32-4.38,5.8,5.8,0,0,0-.48-4.22,11.46,11.46,0,0,1-1.21-3.94,1,1,0,0,0-.7-1.09.71.71,0,0,0-.66.38c-.49-.08-2,.89-2,.89S22.88,13,22,13.26s-.38,3.06-.38,3.06a10.19,10.19,0,0,1-1.39.78c-1.45.74.13,2.66.13,2.66a9.89,9.89,0,0,0-1.54,2.14c-.41.94.18,1.55,1.6,4.77C15,33.73,12.48,41.91,12.6,51.08,1.89,61.61-.17,73.61,0,84.44s2.06,15.7,11.47,26.47S31.42,123.79,47.6,123s23.29-10.24,26.65-14.18S79,95,79.25,92.26,80.13,85.2,78.36,84.08ZM70,57.77a14.23,14.23,0,0,0,1.38.57A4.54,4.54,0,0,1,70,57.77c-6.6-3.2-8.36-11-8-14.39C62,43.38,65.16,54.87,70,57.77ZM64.39,40.42l1,1.49L65,44l.21-2.11ZM65.75,39l.88,1.7L66,43.38l.26-2.58Zm1,3.86.77-2.94-.63-2.2L68,39.77ZM64,38.38c.54-.58,1.33-.05,1.33-.05s-.49-.88.17-1.39a.68.68,0,0,1,1.06.23A.84.84,0,0,1,67,36a.9.9,0,0,1,1.21.38s-.71-.45-1-.16-.41,1.25-.41,1.25-.64-.77-1.07-.44-.09,1.59-.09,1.59-.91-.65-1.37-.17,0,1.67,0,1.67S63.49,39.58,63,40a1.27,1.27,0,0,0-.27,1.19L62,42.86a7.24,7.24,0,0,0,.57-1.79A1.57,1.57,0,0,1,62.72,40,.79.79,0,0,1,64,39.88S63.48,39,64,38.38ZM47.51,32.31a6.6,6.6,0,0,0,1.1-4.65,2.47,2.47,0,0,1,2.23-.89,22.76,22.76,0,0,0,4.5-.46s-1.05-1.32.09-3.57c.09,3.51,2.8,6.57,5.82,8.25s2.1,3.86,2.1,3.86-2.49,1.7-2.6,2.76-.75,3-2.45,2.86-2.85-1.59-3.89-2.55-1-.4-2.22-.57-1.3-.69-1.35-1.42,1.24-1.77,1.9-2.65a4.08,4.08,0,0,0,.17-3.53,2.78,2.78,0,0,0-3-.59c-.89.42-.42.64.31.68s2.33.66,1.52,2.85a5.07,5.07,0,0,1-3.91,3C47.14,35.75,46,34.27,47.51,32.31Zm6.62,7.92c-.33.35-1.62,2.09-3.65,1.59a4.51,4.51,0,0,1-3-3c-.09-.44-.3-1.77.47-1.41,0,0,4.35,2.09,5.38,1.85S54.45,39.88,54.13,40.23ZM42.77,37.92c-.13,5.1,2.74,5.37,2.44,7.8a7.23,7.23,0,0,0,1,4.33c.23-4.2,4.5-2.36,4.5-2.36,7,1.28,10.94-4.37,10.94-4.37a9.88,9.88,0,0,1-9.19,5.26c-1.61-.17-4.15-1.56-5.08.53s.18,1.83.94,3.15c-4.38.15-3.83-6.06-3.79-6.79S43,43,42.45,41.8,42.77,37.92,42.77,37.92ZM24.89,16A4.71,4.71,0,0,0,25.13,18a11.11,11.11,0,0,1,.61,2.59,11.65,11.65,0,0,0-2.42-2c-.07-.66-.07-1.31-.07-1.31Zm.5,5.74a4.1,4.1,0,0,0-3.27-1.39c-.81.27-1.52,2.34-1.52,2.34s.51-2.21,1.35-2.57,3.13.78,3.59,1.4-.27,1.26-.58,1a5.23,5.23,0,0,0-2.08-.86c-.44.05-1,1-1.11,2,0-1.18.56-2.22,1.05-2.25a8.1,8.1,0,0,1,2.28.95C25.18,22.37,25.72,22.39,25.39,21.69ZM23,15.64a5.45,5.45,0,0,1-1.32.64A3.53,3.53,0,0,1,23,15.64Zm.18,3a3.28,3.28,0,0,0-2.74,1S22,17.66,23.19,18.63Zm15.61,22C26.07,42.7,20.16,46.38,13,50.94,13,50.94,25.86,39.91,38.8,40.67Z"
          transform="translate(0 0)"/>
    <path class="cls-1"
          d="M50.54,32.38c.31.37.73.47.9.16s-.11-1.13-1.36-1.4-1.61.47-1.61.47A2.13,2.13,0,0,1,50.54,32.38Z"
          transform="translate(0 0)"/>
    <path class="cls-1"
          d="M58.52,32.57a7.3,7.3,0,0,1,2.21,1.15c0-1.84-1.84-3-2.78-3.12s-2.12.29-2,1.15S57.44,32.29,58.52,32.57Z"
          transform="translate(0 0)"/>
    <path class="cls-1"
          d="M56.48,35.58A6.9,6.9,0,0,1,58,35.25a2.68,2.68,0,0,1,1.55.86,1.79,1.79,0,0,0-1.18-1.73c-1.21-.38-2.48.1-2.54.47A.61.61,0,0,0,56.48,35.58Z"
          transform="translate(0 0)"/>
</svg>